PathFileType	4	(X/Y/Z)	Kaydara	
DataRate	CameraRate	NumFrames	NumMarkers	Units	OrigDataRate	OrigDataStartFrame	OrigNumFrames	
120.00	120.00	4	72	mm	120.00	66	261	
Frame#	Time	Hips			RightUpLeg			RightLeg			RightFoot			RightFoot_End			LeftUpLeg			LeftLeg			LeftFoot			LeftFoot_End			Spine			Spine1			Spine2			Spine3			Neck			Head			Head_End			RightShoulder			RightArm			RightForeArm			RightHand			RightHandThumb1			RightHandThumb2			RightHandThumb3			RightHandThumb3_End			RightInHandIndex			RightHandIndex1			RightHandIndex2			RightHandIndex3			RightHandIndex3_End			RightInHandMiddle			RightHandMiddle1			RightHandMiddle2			RightHandMiddle3			RightHandMiddle3_End			RightInHandRing			RightHandRing1			RightHandRing2			RightHandRing3			RightHandRing3_End			RightInHandPinky			RightHandPinky1			RightHandPinky2			RightHandPinky3			RightHandPinky3_End			LeftShoulder			LeftArm			LeftForeArm			LeftHand			LeftHandThumb1			LeftHandThumb2			LeftHandThumb3			LeftHandThumb3_End			LeftInHandIndex			LeftHandIndex1			LeftHandIndex2			LeftHandIndex3			LeftHandIndex3_End			LeftInHandMiddle			LeftHandMiddle1			LeftHandMiddle2			LeftHandMiddle3			LeftHandMiddle3_End			LeftInHandRing			LeftHandRing1			LeftHandRing2			LeftHandRing3			LeftHandRing3_End			LeftInHandPinky			LeftHandPinky1			LeftHandPinky2			LeftHandPinky3			LeftHandPinky3_End			
		X1	Y1	Z1	X2	Y2	Z2	X3	Y3	Z3	X4	Y4	Z4	X5	Y5	Z5	X6	Y6	Z6	X7	Y7	Z7	X8	Y8	Z8	X9	Y9	Z9	X10	Y10	Z10	X11	Y11	Z11	X12	Y12	Z12	X13	Y13	Z13	X14	Y14	Z14	X15	Y15	Z15	X16	Y16	Z16	X17	Y17	Z17	X18	Y18	Z18	X19	Y19	Z19	X20	Y20	Z20	X21	Y21	Z21	X22	Y22	Z22	X23	Y23	Z23	X24	Y24	Z24	X25	Y25	Z25	X26	Y26	Z26	X27	Y27	Z27	X28	Y28	Z28	X29	Y29	Z29	X30	Y30	Z30	X31	Y31	Z31	X32	Y32	Z32	X33	Y33	Z33	X34	Y34	Z34	X35	Y35	Z35	X36	Y36	Z36	X37	Y37	Z37	X38	Y38	Z38	X39	Y39	Z39	X40	Y40	Z40	X41	Y41	Z41	X42	Y42	Z42	X43	Y43	Z43	X44	Y44	Z44	X45	Y45	Z45	X46	Y46	Z46	X47	Y47	Z47	X48	Y48	Z48	X49	Y49	Z49	X50	Y50	Z50	X51	Y51	Z51	X52	Y52	Z52	X53	Y53	Z53	X54	Y54	Z54	X55	Y55	Z55	X56	Y56	Z56	X57	Y57	Z57	X58	Y58	Z58	X59	Y59	Z59	X60	Y60	Z60	X61	Y61	Z61	X62	Y62	Z62	X63	Y63	Z63	X64	Y64	Z64	X65	Y65	Z65	X66	Y66	Z66	X67	Y67	Z67	X68	Y68	Z68	X69	Y69	Z69	X70	Y70	Z70	X71	Y71	Z71	X72	Y72	Z72	

66	0.542	3081.203	893.81699	129.612	3169.7685216887435	901.5859193498286	89.37816796088904	3063.7015365455145	502.40920644716556	19.58980597261651	3036.5280198642545	109.57548598273762	4.61861643345798	2920.0776924610277	40.82239148829222	142.8052982362743	3005.9933621111836	860.5463508701052	183.57852994610195	2902.89801023952	470.6934836694995	296.36796670037296	2790.2081062552547	74.75246139161193	454.9490529425161	2643.060513388771	25.72013680599429	344.57520138116445	3018.373365191003	1011.7365800957461	78.97454423876351	2958.7877565321332	1070.7246005316388	30.382827414117262	2893.002048866728	1125.6663903517774	-22.9445571955784	2825.4230350966495	1167.6759215246639	-78.2466702626696	2751.7026614837005	1214.0942303212917	-134.36180491131572	2676.5970337499602	1250.4807208771654	-178.4782033369004	2537.733525224467	1328.3222270122685	-189.2368003084273	2799.0432262807503	1211.753063103336	-132.57124494562674	2880.0072867395015	1250.1376621895147	-208.1925719518727	2974.3779996267103	1035.6713966371024	-286.74200758730706	3139.8169600893593	918.7949993285167	-374.2714904380424	3144.302603682832	927.155188685195	-396.3078441803822	3139.478514450142	922.859316682646	-419.25400907336024	3138.0618340578	916.8656163431209	-434.123134308915	3138.5428291457847	909.3007461542511	-445.5688051190486	3153.412778332415	917.5324993147875	-394.2589546521249	3173.8860927777832	902.8574411152887	-421.0744398830308	3178.8703372412315	890.6587896738326	-440.21370075151697	3173.713221752488	885.5688132757641	-451.1990105765938	3163.8758776721515	883.0380639247855	-459.67531723023916	3157.5440327398974	909.7837522862155	-390.32774902211554	3179.75032302838	891.2794062597613	-414.3562418057706	3185.656257803773	876.990944496345	-434.63588398660306	3179.6585288613433	870.381097867829	-447.5988827416017	3169.0036480660024	867.3840131797427	-456.732336713003	3160.0511464061337	904.6813713045781	-386.8592834089327	3182.4530395790193	883.6615937477085	-405.36288827508224	3188.041908231074	870.2379923894227	-422.3824402718228	3182.490923603559	863.3472980354148	-434.53776016953697	3172.5836707831822	860.2852544999387	-442.96035432346685	3161.474503031929	899.2444676527682	-382.138232509599	3183.2773932095847	876.6007121868792	-396.1850210039163	3188.3426110829	864.4303958379733	-408.709159061318	3184.5790346415242	858.7168172238966	-417.0410246434837	3175.9670310362926	855.608690909504	-424.1945872056228	2753.2326486681714	1183.9991121593198	-99.35776805066308	2692.9153656196036	1091.0661205788056	-44.60288203894357	2895.757502493191	1002.7319565440454	-166.6200261128023	3097.9791837562516	939.7528340286736	-279.9686915020032	3108.9581337068093	954.9255438405085	-296.757684504589	3138.0897350619107	960.575376006649	-296.8528313165471	3160.6519762187	961.3269015827888	-296.02345262106957	3181.4073367906003	959.230430299958	-294.5658338736411	3117.2775460330076	945.0174912838577	-296.78380078196665	3158.8613704853105	940.7803044216464	-311.81267706712055	3192.3032329874923	937.2433629602098	-313.20994499987063	3210.486125287962	937.6431760825069	-308.6682221111373	3223.7769984606284	939.7270322338079	-301.25956093948355	3122.2318666155816	936.4797147888343	-293.3940059920602	3165.4699807965835	927.7289709825793	-306.22176335847894	3202.4861598036227	922.7559310585235	-307.23911649472353	3224.6748121548244	922.7039554794511	-301.5162282491429	3239.339770249752	924.7243043372432	-293.29144098912906	3124.6483538795032	930.5402262653258	-290.70474793365486	3165.429954964434	917.4960363344725	-300.1273244267285	3198.161546846729	912.0373368414057	-300.4742948017343	3219.8128724847234	911.3902014357539	-294.6674557078583	3233.7194325847454	913.0069398693455	-286.7982381714338	3126.4066643680458	923.9408957839782	-286.46758227977557	3164.8329482795434	907.8544104958685	-292.8016903643415	3191.5958875803476	901.7864363554985	-292.1956994730928	3207.6558085348734	900.4935965737402	-287.53262676850755	3220.128624094243	901.4533689243826	-280.31572563263967
67	0.55	3081.203	893.81699	129.612	3169.946632237584	901.6918850805728	89.58451698058869	3063.683836756109	502.45477966012504	20.437880512402273	3036.630974713067	109.59679745252342	5.727732956034611	2920.138748699603	40.8735212311751	143.9232043443306	3005.7840826598976	860.4266687763525	183.37847069726007	2902.3226521486695	470.77627184016285	296.52322219221924	2789.4356636797374	75.07389455471362	455.7273115609269	2642.234395618675	26.079493885962787	345.39018605313044	3018.480518921991	1011.7844719728123	78.9537428814555	2958.974522574457	1070.8370568357227	30.340880366702134	2893.275443090224	1125.8579527533134	-23.01553406841511	2825.7886629948785	1167.9677503178305	-78.36220841254051	2752.1572613719527	1214.484508865364	-134.51940648773544	2677.0712532078405	1250.9178797220245	-178.63274564975532	2538.1779447280624	1328.7003989618277	-189.51515945844722	2799.529424175094	1212.2434377023746	-132.63860173956633	2880.8786939319816	1251.3705358282448	-208.04280685447904	2976.052633686787	1037.2081754103567	-287.7659246823624	3142.609704027595	921.4251148189255	-376.28726516125215	3147.3735646433056	930.1847172027861	-398.3238364831954	3142.782946278352	926.1432408338075	-421.59876347035595	3141.5192808378206	920.3019059516132	-436.72583848023635	3142.119645118618	912.8428454279148	-448.4113550705702	3156.4811662747993	920.5230539905394	-396.35565775337716	3177.3132389767134	906.2494593011938	-423.5031336379981	3182.5138650247222	894.2593664417975	-442.9976697434649	3177.4529697435587	889.2492228672018	-454.2226720333498	3167.669428685251	886.750942133186	-462.9100633284901	3160.5723036578306	912.6895290397141	-392.4976756730284	3183.106829407315	894.5309253541471	-416.8895491308357	3189.242380285414	880.4574662954899	-437.5656092822898	3183.357617464654	873.9378993786971	-450.8219797735654	3172.760093126177	870.9734085683655	-460.1884377698895	3163.0422677118086	907.5176463923822	-389.0714608545834	3185.707089921871	886.7492521091184	-407.93446266600324	3191.4889324652186	873.4996420187839	-425.3079067304171	3186.043108959413	866.6889122958089	-437.75065388491197	3176.1879813039586	863.6541397950389	-446.394438090786	3164.4096826246923	901.9839903816086	-384.3974156479086	3186.4205217183826	879.5134188362669	-398.7995510469549	3191.6279397939297	867.4604150191216	-411.61857353936364	3187.935106129658	861.7945116514999	-420.1656519641187	3179.3658464581445	858.7044120753391	-427.5183521397218	2753.5991859801366	1184.2232488985574	-99.58579223251967	2692.8167494355453	1090.5593503758678	-46.17949324099621	2896.527031839378	1003.8702431902833	-168.5581773148914	3099.6696912483553	942.3592777060055	-282.1378850764001	3110.8530774195324	957.8572280245388	-298.7217816498143	3140.086278697186	963.6282974484731	-298.53513802068863	3162.7094046932198	964.4442854643561	-297.5406733307902	3183.5070824245736	962.3844745605876	-295.9720812579597	3119.166611224573	947.9271328884072	-298.8560674433131	3160.970803739076	943.9940124069687	-313.78606999838	3194.5086843360396	940.5635237260407	-315.03277856808745	3212.710739383791	940.9644727327193	-310.33487120470903	3225.9901350866894	943.0053921042983	-302.75472306383097	3124.083700373254	939.3194762013511	-295.55056159388965	3167.5166316274253	930.8275402131609	-308.32749767028486	3204.631887843608	925.9603233585507	-309.19189957959117	3226.8409261842853	925.9047544281713	-303.28602299954434	3241.4919938971943	927.8757119852114	-294.8762452696513	3126.4688215343213	933.3238531777511	-292.92439118632814	3167.3994332946136	920.4657963003448	-302.3591540654024	3200.211242933168	915.0883503210331	-302.5844726535537	3221.8789712511402	914.4319158000326	-296.6073178670378	3235.770926235775	915.9994477481629	-288.56709327839627	3128.1801728975765	926.6431598608299	-288.7548132564604	3166.716135278062	910.6806793639776	-295.14513643185137	3193.533079687597	904.6598095904568	-294.45986293543757	3209.6000158580114	903.3515010314089	-289.6813314918992	3222.057045066633	904.2626857650121	-282.3179945089602
68	0.558	3081.203	893.81699	129.612	3170.135560851817	901.791151175196	89.83474393534885	3063.635174524133	502.5096462300265	21.300147839245277	3036.668278296175	109.6286779402782	6.928893900431469	2920.1452229731854	40.9409470829488	145.14313129176685	3005.5564576689762	860.3131496693505	183.14108146586196	2901.675394517169	470.8915895015981	296.6806372934283	2788.5883010360362	75.41143505886426	456.4551491763933	2641.4055170123693	26.48605107240532	346.04453993355634	3018.6168538879256	1011.8345967351996	78.90132093650014	2959.2001405859573	1070.9541852474179	30.257768420537175	2893.594458512411	1126.056452241284	-23.13419346907357	2826.201029405844	1168.2677021684237	-78.52634050710736	2752.659972934871	1214.8846991109476	-134.72625106278127	2677.5968951586015	1251.3684154013765	-178.83709494494258	2538.688204403316	1329.1164848057786	-189.83766559130692	2800.0625011249	1212.7437675044464	-132.75412843447478	2881.765001322416	1252.5940232760227	-207.9592743380924	2977.7219803798903	1038.732213848667	-288.83397123384685	3145.4402353666005	924.07948921664	-378.3482886866966	3150.467988006568	933.2338057201612	-400.3791154130544	3146.102878582178	929.4475802323012	-423.9702871840052	3144.9873208456324	923.7595866856728	-439.3461360608201	3145.703509616449	916.4074743695435	-451.26345625855777	3159.5733045547063	923.5335810162295	-398.4898501275912	3180.7480151648574	909.6585571125082	-425.9540292588854	3186.1574634722515	897.8777801186654	-445.7910782384637	3181.1908270134963	892.9493750926068	-457.24823133605673	3171.4613136666703	890.4861084217043	-466.14073158639087	3163.6267953366287	915.6165450871508	-394.7042716141652	3186.4751679571696	897.8015455891359	-419.44417272521866	3192.832468689404	883.9440947787147	-440.5026627700918	3187.058489749825	877.5171945276171	-454.0432778131421	3176.5186550765343	874.5881243671221	-463.636186464196	3166.0617301037296	910.3761024418548	-391.32013535894225	3188.978321562617	889.8579165890692	-410.5286692797744	3194.9466953143633	876.7833618653883	-428.2437737481618	3189.6041479227515	870.0549972968088	-440.9651246851407	3179.8015634777134	867.0502023470079	-449.8239271709061	3167.376398545349	904.7470705509764	-386.6932155398855	3189.586794052375	882.4493659659087	-401.4381038942195	3194.931949209254	870.5148240085581	-414.5422163323299	3191.3088199931653	864.8984907424177	-423.2980716221756	3182.7828681816413	861.8288987431349	-430.84444367545893	2754.0141684301084	1184.4561131010576	-99.86373478257674	2692.771539491705	1090.0434647023255	-47.90554189056078	2897.2083306062386	1004.6547343396694	-170.6792403640325	3101.0882528918983	943.9856478855065	-284.66684422848016	3112.4671941132538	959.798088111154	-301.0476509216778	3141.7875275706688	965.7003835093158	-300.57559193033137	3164.463210207681	966.5894830421428	-299.4103403535015	3185.2977528043134	964.5749902428869	-297.7233054507209	3120.7813248982816	949.8493131078369	-301.2783769706087	3162.804188531598	946.2226709629336	-316.085148521725	3196.431368747784	942.9094737591375	-317.16716223012406	3214.6440798889093	943.3217606149929	-312.3103046703023	3227.9020356975725	945.3305235575432	-304.5604428970454	3125.6657233386127	941.1767287789646	-298.0495037789962	3169.294275252946	932.9486297371933	-310.7477185203841	3206.501874714275	928.1997201183375	-311.4428169601462	3228.721322790861	928.153181469145	-305.3501693329171	3243.3477393916737	930.0866965113147	-296.7571240237161	3128.0227972486887	935.1283273326122	-295.4815787830892	3169.106218014045	922.463586455343	-304.89916129957203	3201.99298430502	917.1789394214928	-304.987671677457	3223.667816000276	916.5257351117274	-298.8360739582287	3237.5352020695755	918.0554635843504	-290.62623610069255	3129.690533873159	928.3707104600243	-291.37514045008686	3168.3419445845398	912.5412875043378	-297.7918121568172	3195.2096143200865	906.5777752809669	-297.01383739164197	3211.2772344539308	905.2636226712013	-292.1162161615456	3223.7099116722884	906.1366006235388	-284.60732135980555
69	0.567	3081.203	893.81699	129.612	3170.3244907026065	901.8780900163954	90.09887347021896	3063.5487583727177	502.5742867804586	22.09445668120406	3036.658050503359	109.67305961353904	8.109821020449184	2920.1170926332243	41.02687838895337	146.3544384992209	3005.3245131209715	860.2116086687917	182.89343342386124	2901.0994769765757	470.98631604188085	296.7871041370874	2787.8064546883775	75.722693666485	457.103775776005	2640.7113846069797	26.93260191501842	346.49529203780133	3018.7716312625503	1011.8869750598498	78.83124980543428	2959.4457838306835	1071.0714933140896	30.152076218622657	2893.932702784521	1126.2516198164749	-23.278529710068188	2826.6284821903587	1168.5587558529144	-78.7159231796011	2753.173447509608	1215.2708285177084	-134.9576141597425	2678.128717257067	1251.7994974249268	-179.06076583968496	2539.2161362465067	1329.5332891773642	-190.15683989831425	2800.605080208314	1213.2328266756292	-132.89518009110216	2882.6366966690757	1253.787761863101	-207.91227877618715	2979.3738920965234	1040.2116915377856	-289.8912967546378	3148.277990564791	926.7154602924275	-380.3961756400019	3153.5471595574563	936.2443619325578	-402.4189055492043	3149.389565548287	932.7041501097506	-426.3060939396453	3148.410358661477	927.1644179714119	-441.9151514818989	3149.2332337800635	919.9161758910129	-454.0500362429713	3162.6503150656613	926.5075776046774	-400.60429754885104	3184.1389409013636	913.0127654896984	-428.36414562768664	3189.740384352891	901.4338622988723	-448.5223488870328	3184.860876948635	896.585819117818	-460.19751873962184	3175.1817381987785	894.158618958956	-469.28285387560874	3166.6694171016816	918.5116031003682	-396.88751365343364	3189.805381661038	901.0247709731424	-421.95297755048557	3196.3665974570863	887.375876318885	-443.37017381997504	3190.6950540568637	881.0403038658238	-457.17778254782075	3180.209033060843	878.1479614065871	-466.98361434313574	3169.0723241318387	913.2062491096523	-393.5434991878577	3192.219665604297	892.9274623396614	-413.07589193035386	3198.359604642757	880.0221766233535	-431.1115872755776	3193.112588871269	873.3752609716595	-444.09469508128353	3183.359049847235	870.4018520015945	-453.15569762669	3170.338795451983	907.4869647810257	-388.9616282245135	3192.732153593185	885.355202291335	-404.0282875755082	3198.2040597577143	873.5356410645757	-417.4001027821066	3194.6454688851604	867.9687678563154	-426.35219769153395	3186.1600040104813	864.9212530786402	-434.0807447973911	2754.4441345619452	1184.6755840826966	-100.16575927692341	2692.78868355739	1089.6113296978137	-49.412356713123806	2897.803844425767	1005.1175385259239	-172.63994680760993	3102.274452898038	944.7720166661032	-287.174288024458	3113.8344610375043	960.8773148336488	-303.3605040232909	3143.228201972939	966.9179046195725	-302.6115277474353	3165.9492137699986	967.8878163442732	-301.27781483953504	3186.8165862083906	965.9274369974434	-299.47120263789583	3122.156698079778	950.9154890318498	-303.67443505802345	3164.3940663345165	947.5913033111378	-318.3423292008936	3198.1050142278455	944.405098557857	-319.2548231430914	3216.321922694958	944.8396659653376	-314.24348471964055	3229.5510549367996	946.8286429464235	-306.33264692829187	3127.0147577356806	942.1862630604255	-300.51325663041956	3170.838304272765	934.2225571687687	-313.11265171101184	3208.1330581656503	929.603662322032	-313.63206103036686	3230.3555302688183	929.5798949605735	-307.3574958883921	3244.9494155496564	931.4897645137238	-298.5904808594167	3129.3484198360024	936.0909313677968	-297.9975731106372	3170.58823254079	923.6247613606951	-307.3744926623871	3203.5463000838577	918.4442637245774	-307.3195154726393	3225.2215723225913	917.8081527766083	-300.9975662698504	3239.057199075055	919.3133399764009	-292.6265792681187	3130.9776811184533	929.2641092976996	-293.9485023784001	3169.7511303582287	913.5769538662439	-300.36612578422995	3196.6679360579956	907.68165739059	-299.48846668247313	3212.732027682523	906.3726268006649	-294.4739493578195	3225.134356584378	907.2196378109943	-286.8265392441622
